<svg width="15" height="13" viewBox="0 0 15 13" fill="none" xmlns="http://www.w3.org/2000/svg">
<path fill-rule="evenodd" clip-rule="evenodd" d="M0 6.5C0 6.25377 0.0978139 6.01763 0.271923 5.84352C0.446033 5.66941 0.682176 5.5716 0.928404 5.5716H11.6849L7.69832 1.58689C7.52399 1.41256 7.42606 1.17612 7.42606 0.929577C7.42606 0.683038 7.52399 0.446596 7.69832 0.272267C7.87265 0.0979375 8.1091 0 8.35563 0C8.60217 0 8.83862 0.0979375 9.01295 0.272267L14.5834 5.84269C14.6698 5.92893 14.7384 6.03138 14.7852 6.14417C14.832 6.25697 14.8561 6.37788 14.8561 6.5C14.8561 6.62212 14.832 6.74303 14.7852 6.85583C14.7384 6.96862 14.6698 7.07107 14.5834 7.15731L9.01295 12.7277C8.83862 12.9021 8.60217 13 8.35563 13C8.1091 13 7.87265 12.9021 7.69832 12.7277C7.52399 12.5534 7.42606 12.317 7.42606 12.0704C7.42606 11.8239 7.52399 11.5874 7.69832 11.4131L11.6849 7.4284H0.928404C0.682176 7.4284 0.446033 7.33059 0.271923 7.15648C0.0978139 6.98237 0 6.74623 0 6.5Z" fill="#4777E5"/>
</svg>
