<svg width="25" height="25" viewBox="0 0 25 25" fill="none" xmlns="http://www.w3.org/2000/svg">
<path d="M6.25 4.6875C5.4212 4.6875 4.62634 5.01674 4.04029 5.60279C3.45424 6.18884 3.125 6.9837 3.125 7.8125V8.12656L12.5 13.175L21.875 8.12813V7.8125C21.875 6.9837 21.5458 6.18884 20.9597 5.60279C20.3737 5.01674 19.5788 4.6875 18.75 4.6875H6.25ZM21.875 9.90156L12.8703 14.75C12.7565 14.8113 12.6293 14.8433 12.5 14.8433C12.3707 14.8433 12.2435 14.8113 12.1297 14.75L3.125 9.90156V17.1875C3.125 18.0163 3.45424 18.8112 4.04029 19.3972C4.62634 19.9833 5.4212 20.3125 6.25 20.3125H18.75C19.5788 20.3125 20.3737 19.9833 20.9597 19.3972C21.5458 18.8112 21.875 18.0163 21.875 17.1875V9.90156Z" fill="white"/>
</svg>
